Coordinates
nRows=10
nColumns=38

# SIMM Motion File Header:
name Coordinates
datacolumns 38
datarows 10
otherdata 1
range 0.97099999999999997000 0.97999999999999998000

Units are S.I. units (second, meters, Newtons, ...)
Angles are in degrees.

endheader
time	pelvis_tilt	pelvis_list	pelvis_rotation	pelvis_tx	pelvis_ty	pelvis_tz	hip_flexion_r	hip_adduction_r	hip_rotation_r	knee_angle_r	ankle_angle_r	subtalar_angle_r	mtp_angle_r	hip_flexion_l	hip_adduction_l	hip_rotation_l	knee_angle_l	ankle_angle_l	subtalar_angle_l	mtp_angle_l	lumbar_extension	lumbar_bending	lumbar_rotation	arm_flex_r	arm_add_r	arm_rot_r	elbow_flex_r	pro_sup_r	wrist_flex_r	wrist_dev_r	arm_flex_l	arm_add_l	arm_rot_l	elbow_flex_l	pro_sup_l	wrist_flex_l	wrist_dev_l
      0.97099999999999997000	     -6.14086481050390990000	      3.35732366915495460000	      2.50453069889344700000	      0.91757621876849593000	      0.96428247782179655000	     -0.31048196422290636000	     38.55749506589892000000	     -4.08609028516799280000	      1.03114601619326090000	   -104.36494705587701000000	      0.71013428893919250000	      0.00000000000018427716	     -0.00000000000044877979	     10.99173887626658800000	     10.49331972997501500000	      0.99646564473151045000	    -37.96208933261588200000	     25.44717287501193000000	      0.00000000000000455644	      0.00000000000001456029	     -7.36093332709788490000	     -5.68498711015920040000	     -7.95280310622375810000	    -31.08931327312148700000	    -20.20275014462246000000	     -4.83478618931232700000	     94.01338900280943300000	     91.16614358555318600000	      0.00000000000001784482	     -0.00000000000000828549	     -5.81321788577783050000	    -29.07334224599653900000	      1.61099350910801810000	    114.59008510359023000000	    120.71132327683597000000	      0.00000000000000395743	     -0.00000000000002354195
      0.97199999999999998000	     -6.18384485367849650000	      3.27574992427682110000	      2.55580155594020340000	      0.91756762941619363000	      0.96477139176310978000	     -0.31056727618315610000	     38.81432337522718300000	     -4.05075944076530090000	      0.92762540967772222000	   -104.12566069541364000000	      0.79137257132609862000	      0.00000000000018480896	     -0.00000000000044980926	     10.70329494104075300000	     10.40818886754213700000	      1.10496654420408900000	    -37.69124942924299400000	     25.31298228021556100000	      0.00000000000000431155	      0.00000000000001436207	     -7.30939697231143360000	     -5.57459328236984940000	     -8.07901082933208240000	    -31.28193572796544700000	    -20.16710257878573400000	     -4.88120216384556650000	     94.08783386217001500000	     91.15754087098393700000	      0.00000000000001787595	     -0.00000000000000823496	     -5.69638441235501960000	    -29.11721826637602800000	      1.70345473679958560000	    114.74221087093605000000	    120.43900116938816000000	      0.00000000000000394952	     -0.00000000000002362571
      0.97299999999999998000	     -6.22781284160505070000	      3.19282355842852450000	      2.60695276397913260000	      0.91756216387431466000	      0.96526502239429612000	     -0.31065254117774066000	     39.06900065291957700000	     -4.01507295479619670000	      0.82266994883801847000	   -103.87972717415586000000	      0.87214034617953429000	      0.00000000000018534107	     -0.00000000000045083937	     10.41668730030462900000	     10.32095709341242800000	      1.21297260868318870000	    -37.42006131230188300000	     25.17091696299674200000	      0.00000000000000408923	      0.00000000000001412745	     -7.25624187773466820000	     -5.46258504731879140000	     -8.20388143037473760000	    -31.47478778985898300000	    -20.13159553159333700000	     -4.92819138971376700000	     94.16360803215597700000	     91.14729998248938600000	      0.00000000000001790676	     -0.00000000000000818644	     -5.58129627822057730000	    -29.16001441637392600000	      1.79685702252181060000	    114.89445847940705000000	    120.16828317233796000000	      0.00000000000000394197	     -0.00000000000002370020
      0.97399999999999998000	     -6.27269484262710630000	      3.10858003996684130000	      2.65793464767327410000	      0.91755976515083437000	      0.96576341914689345000	     -0.31073764452943065000	     39.32141669501933700000	     -3.97901057660990620000	      0.71633432547230225000	   -103.62716496372207000000	      0.95238722539800691000	      0.00000000000018587424	     -0.00000000000045187004	     10.13196073436729200000	     10.23162793038369900000	      1.32033823648566600000	    -37.14871778929137500000	     25.02087332588029900000	      0.00000000000000385601	      0.00000000000001389098	     -7.20156602872970990000	     -5.34901344161696900000	     -8.32740294305949470000	    -31.66775944082207400000	    -20.09621597713657700000	     -4.97567434149952790000	     94.24050516199358200000	     91.13540455943979200000	      0.00000000000001793725	     -0.00000000000000813589	     -5.46798625020484150000	    -29.20168057650098700000	      1.89108659163475570000	    115.04677573028370000000	    119.89979581311607000000	      0.00000000000000393496	     -0.00000000000002377735
      0.97499999999999998000	     -6.31840962138749250000	      3.02305547915420500000	      2.70869666793178080000	      0.91756038549268448000	      0.96626664172940890000	     -0.31082246897947968000	     39.57145263368672500000	     -3.94255108920456050000	      0.60867143630268972000	   -103.36799138474832000000	      1.03206586701668050000	      0.00000000000018640862	     -0.00000000000045290123	      9.84914645888217420000	     10.14020594076349000000	      1.42691897281681170000	    -36.87740337030810200000	     24.86275334253024400000	      0.00000000000000362562	      0.00000000000001365407	     -7.14547486326187360000	     -5.23392974137813120000	     -8.44956220298159620000	    -31.86074362742343500000	    -20.06094998206245000000	     -5.02357524246735480000	     94.31832351279878400000	     91.12184601972281000000	      0.00000000000001796831	     -0.00000000000000808127	     -5.35648701614165650000	    -29.24216889050403300000	      1.98602641637254610000	    115.19911251868169000000	    119.63414160032791000000	      0.00000000000000392844	     -0.00000000000002385672
      0.97599999999999998000	     -6.36486931719024080000	      2.93628650926522460000	      2.75918734950221500000	      0.91756398636280256000	      0.96677475882810426000	     -0.31090689471469352000	     39.81898184834417300000	     -3.90567209716789020000	      0.49973255263887084000	   -103.10222272635632000000	      1.11113217606044980000	      0.00000000000018693897	     -0.00000000000045393141	      9.56826266926322510000	     10.04669669445651600000	      1.53257169218692770000	    -36.60629385186898300000	     24.69646470652755000000	      0.00000000000000340721	      0.00000000000001340723	     -7.08808046176388200000	     -5.11738534447694260000	     -8.57034456158923950000	    -32.05363649553356700000	    -20.02578281901777400000	     -5.07182204132553150000	     94.39686645357714700000	     91.10662292320142800000	      0.00000000000001800057	     -0.00000000000000802330	     -5.24683097778452010000	    -29.28143388282358500000	      2.08155683239229510000	    115.35142068841760000000	    119.37189652628996000000	      0.00000000000000392180	     -0.00000000000002393554
      0.97699999999999998000	     -6.41198012274419150000	      2.84831016682183650000	      2.80935420782347080000	      0.91757053840670533000	      0.96728784680161284000	     -0.31099079938884344000	     40.06387087633572000000	     -3.86834981529897930000	      0.38956749142790237000	   -102.82987436668220000000	      1.18954550531386060000	      0.00000000000018746777	     -0.00000000000045496183	      9.28931508434358650000	      9.95110673827886850000	      1.63715477951643580000	    -36.33555590352905500000	     24.52192100398589900000	      0.00000000000000316571	      0.00000000000001318648	     -7.02950073836086540000	     -4.99943165461710670000	     -8.68973360032860680000	    -32.24633762510243400000	    -19.99069907902699600000	     -5.12034638891546750000	     94.47594295803421000000	     91.08974033512629400000	      0.00000000000001803329	     -0.00000000000000796289	     -5.13905004144583440000	    -29.31943257723386500000	      2.17755615535276360000	    115.50365388437220000000	    119.11360756961767000000	      0.00000000000000391508	     -0.00000000000002401200
      0.97799999999999998000	     -6.45964296320786960000	      2.75916377096990930000	      2.85914367510148760000	      0.91758002140689154000	      0.96780598836440190000	     -0.31107405813762123000	     40.30598032298944800000	     -3.83055885788378660000	      0.27822478781182791000	   -102.55096089441992000000	      1.26726885601858430000	      0.00000000000018799951	     -0.00000000000045599379	      9.01229748898845880000	      9.85344356612487180000	      1.74052831007685430000	    -36.06534665495384900000	     24.33904186025299400000	      0.00000000000000293285	      0.00000000000001296944	     -6.96985863357135570000	     -4.88011996732276110000	     -8.80771084496225500000	    -32.43875026502964000000	    -19.95568278250508600000	     -5.16908361476259160000	     94.55536810207712500000	     91.07120918954497300000	      0.00000000000001806563	     -0.00000000000000790077	     -5.03317540637698270000	    -29.35612461663837900000	      2.27390129754454230000	    115.65576740216297000000	    118.85979019784641000000	      0.00000000000000390920	     -0.00000000000002406790
      0.97899999999999998000	     -6.50775417565057970000	      2.66888480196869300000	      2.90850102563975500000	      0.91759242422313747000	      0.96832927126299373000	     -0.31115654358734524000	     40.54516577111482400000	     -3.79227202863869280000	      0.16575186911876955000	   -102.26549623156427000000	      1.34426907848195950000	      0.00000000000018853216	     -0.00000000000045702425	      8.73719227585577230000	      9.75371559021037270000	      1.84255422800988940000	    -35.79581328594082400000	     24.14775309835688000000	      0.00000000000000273767	      0.00000000000001272847	     -6.90928130853154340000	     -4.75950135772062220000	     -8.92425548009753200000	    -32.63078156820679300000	    -19.92071748907845600000	     -5.21797270352471990000	     94.63496356214687900000	     91.05104565267397700000	      0.00000000000001809796	     -0.00000000000000783687	     -4.92923735072855870000	    -29.39147238404000400000	      2.37046838453317220000	    115.80771803508193000000	    118.61092587010464000000	      0.00000000000000390408	     -0.00000000000002410703
      0.97999999999999998000	     -6.55620618887004270000	      2.57751077884271010000	      2.95737030040881120000	      0.91760774471759599000	      0.96885778694327063000	     -0.31123812585737720000	     40.78127868987235200000	     -3.75346011130484940000	      0.05219523032941082000	   -101.97349375732959000000	      1.42051707260830360000	      0.00000000000018906523	     -0.00000000000045805510	      8.46397098612706420000	      9.65193211322559290000	      1.94309652376635330000	    -35.52709261796543000000	     23.94798688715751900000	      0.00000000000000255517	      0.00000000000001245290	     -6.84789934078472400000	     -4.63762657011984200000	     -9.03934406392926700000	    -32.82234282686601300000	    -19.88578640605523900000	     -5.26695627129558640000	     94.71455811430053000000	     91.02927048625403500000	      0.00000000000001812995	     -0.00000000000000777086	     -4.82726501510418870000	    -29.42544112463159300000	      2.46713337182059120000	    115.95946391826436000000	    118.36745953983204000000	      0.00000000000000389964	     -0.00000000000002414470
